<?xml version="1.0" standalone="no"?>
<!DOCTYPE svg PUBLIC "-//W3C//DTD SVG 20010904//EN"
 "http://www.w3.org/TR/2001/REC-SVG-20010904/DTD/svg10.dtd">
<svg version="1.0" xmlns="http://www.w3.org/2000/svg"
 width="500.000000pt" height="500.000000pt" viewBox="0 0 500.000000 500.000000"
 preserveAspectRatio="xMidYMid meet">

<g transform="translate(0.000000,500.000000) scale(0.100000,-0.100000)"
fill="#000000" stroke="none">
<path d="M2960 3743 c-1 -10 -6 -30 -13 -45 l-12 -27 -44 19 c-24 11 -46 19
-47 17 -2 -2 10 -22 27 -45 l30 -41 -42 -22 c-47 -24 -40 -39 19 -39 l34 0 -6
-52 -7 -53 36 40 36 40 35 -40 35 -40 -6 53 -7 52 34 1 c18 0 41 4 51 7 14 6
9 12 -28 30 l-47 23 24 32 c43 56 42 58 -11 37 l-51 -20 -11 45 c-11 45 -29
61 -29 28z"/>
<path d="M2462 3684 c-22 -15 -30 -66 -14 -90 34 -52 122 -25 122 38 0 56 -60
86 -108 52z"/>
<path d="M2287 3526 c-46 -17 -66 -34 -91 -78 l-19 -33 21 18 c42 38 161 62
177 37 10 -17 -24 -119 -75 -225 -47 -96 -86 -161 -147 -242 l-28 -38 50 39
c124 97 248 240 321 371 l40 69 89 1 c91 0 146 16 200 58 18 15 17 15 -20 2
-56 -20 -154 -18 -263 5 -134 28 -210 33 -255 16z"/>
<path d="M3081 3343 c72 -142 -73 -320 -387 -476 -231 -115 -484 -181 -809
-213 l-70 -7 55 -13 c30 -7 84 -16 120 -20 62 -6 68 -9 130 -68 59 -55 170
-127 170 -111 0 4 -8 19 -19 33 -22 32 -56 98 -65 130 -7 19 -4 22 23 22 26 0
32 -6 55 -55 13 -30 37 -70 51 -90 27 -35 82 -75 104 -75 8 0 11 40 11 129 l0
129 30 4 30 5 0 -134 c0 -86 4 -133 10 -133 42 0 114 70 154 148 23 45 59 152
53 158 -1 2 -20 -1 -42 -6 -76 -18 -69 -10 30 35 93 42 105 45 186 45 96 0 93
-2 104 74 7 41 17 57 79 119 156 157 167 302 29 379 l-51 29 19 -38z"/>
<path d="M2491 3323 c-17 -21 -28 -39 -24 -40 5 -1 28 -7 52 -13 41 -11 43
-13 39 -45 l-4 -35 24 23 c29 27 52 69 52 96 0 23 -20 36 -72 45 -33 6 -39 3
-67 -31z"/>
<path d="M2776 2649 c-17 -64 -55 -144 -89 -193 l-21 -29 60 32 c82 43 150
105 196 175 21 32 38 63 38 68 0 4 -38 8 -83 8 l-84 0 -17 -61z"/>
<path d="M1170 1905 l0 -195 45 0 44 0 3 123 3 122 25 -77 24 -78 37 0 37 0
25 78 25 77 1 -122 1 -123 45 0 45 0 0 195 0 195 -58 0 -59 0 -28 -100 c-15
-54 -31 -97 -35 -95 -5 3 -11 17 -15 32 -3 16 -15 58 -27 96 l-20 67 -59 0
-59 0 0 -195z"/>
<path d="M2510 1904 l0 -196 115 4 c153 4 149 -1 153 174 5 215 6 214 -154
214 l-114 0 0 -196z m158 4 l3 -128 -31 0 -30 0 0 123 c0 68 3 127 7 131 4 4
16 6 28 4 19 -3 20 -11 23 -130z"/>
<path d="M3710 2050 c0 -23 -4 -30 -20 -30 -17 0 -20 -7 -20 -40 0 -33 3 -40
20 -40 19 0 20 -7 20 -92 0 -51 4 -98 8 -104 13 -20 50 -34 91 -34 40 0 41 1
41 36 0 27 -5 37 -20 41 -18 5 -20 14 -20 79 0 67 2 74 20 74 16 0 20 7 20 36
0 27 -5 37 -20 41 -14 4 -20 14 -20 34 0 28 -2 29 -50 29 -49 0 -50 -1 -50
-30z"/>
<path d="M1635 2013 c-49 -13 -55 -29 -55 -149 0 -148 12 -161 145 -152 74 5
105 25 105 70 0 27 -2 28 -45 28 -30 0 -47 -5 -53 -16 -5 -9 -18 -14 -33 -12
-18 2 -24 9 -24 28 0 24 2 25 78 28 l77 3 0 68 c0 89 -14 102 -107 107 -38 1
-77 0 -88 -3z m98 -75 c8 -26 -5 -48 -29 -48 -26 0 -40 20 -30 45 7 18 53 20
59 3z"/>
<path d="M1877 2013 c-4 -3 -7 -73 -7 -155 l0 -148 55 0 54 0 3 108 3 107 33
3 c31 3 32 5 32 48 0 50 -12 56 -54 23 l-26 -20 0 20 c0 18 -6 21 -43 21 -24
0 -47 -3 -50 -7z"/>
<path d="M2117 2009 c-34 -13 -41 -38 -41 -161 0 -112 7 -126 71 -135 29 -4
44 -1 56 12 15 14 17 15 17 1 0 -12 11 -16 50 -16 l50 0 0 155 0 155 -45 0
c-32 0 -47 -5 -52 -16 -4 -10 -8 -12 -12 -5 -10 16 -62 22 -94 10z m103 -144
c0 -68 -2 -75 -20 -75 -18 0 -20 7 -20 75 0 68 2 75 20 75 18 0 20 -7 20 -75z"/>
<path d="M2870 2011 c-41 -11 -51 -45 -48 -158 4 -134 7 -138 129 -138 118 0
119 2 119 149 0 61 -4 116 -8 123 -18 29 -126 43 -192 24z m98 -149 c3 -82 2
-83 -20 -80 -21 3 -23 9 -26 72 -3 80 1 99 25 94 15 -3 18 -16 21 -86z"/>
<path d="M3173 2014 c-42 -10 -53 -40 -53 -152 0 -96 2 -105 25 -127 21 -22
33 -25 95 -25 69 0 107 11 122 34 4 6 8 61 8 122 0 137 -6 145 -107 150 -38 1
-78 0 -90 -2z m95 -152 c3 -82 2 -83 -20 -80 -21 3 -23 9 -26 72 -3 80 1 99
25 94 15 -3 18 -16 21 -86z"/>
<path d="M3454 2006 c-36 -16 -44 -32 -44 -87 0 -57 34 -89 95 -89 41 0 45 -2
45 -25 0 -18 -5 -25 -20 -25 -11 0 -20 7 -20 15 0 11 -12 15 -51 15 l-51 0 6
-32 c10 -48 28 -61 95 -66 111 -8 141 11 141 92 0 66 -17 84 -85 88 -46 3 -50
5 -53 31 -3 22 1 27 17 27 12 0 21 -7 21 -15 0 -11 12 -15 50 -15 54 0 58 6
41 53 -17 44 -120 62 -187 33z"/>
<path d="M1816 1438 c4 -7 16 -25 26 -40 10 -15 18 -44 18 -67 0 -30 4 -41 15
-41 11 0 15 11 15 41 0 23 8 52 18 67 31 45 34 52 20 52 -8 0 -22 -14 -32 -31
l-19 -31 -19 31 c-19 29 -58 47 -42 19z"/>
<path d="M2360 1370 l0 -80 39 0 c23 0 46 7 55 16 18 17 21 50 6 59 -6 3 -7
17 -4 31 9 35 -12 54 -57 54 l-39 0 0 -80z m78 38 c3 -14 -3 -18 -27 -18 -25
0 -31 4 -31 21 0 16 5 20 27 17 17 -2 29 -10 31 -20z m7 -58 c10 -16 -15 -40
-41 -40 -19 0 -24 5 -24 25 0 21 5 25 29 25 17 0 33 -5 36 -10z"/>
<path d="M2715 1441 c-6 -11 9 -23 19 -14 9 9 7 23 -3 23 -6 0 -12 -4 -16 -9z"/>
<path d="M1978 1389 c-21 -12 -24 -69 -6 -87 7 -7 24 -12 38 -12 35 0 50 17
50 57 0 45 -41 66 -82 42z m57 -44 c0 -25 -4 -30 -25 -30 -16 0 -26 6 -28 18
-6 30 6 49 30 45 18 -2 23 -9 23 -33z"/>
<path d="M2092 1348 l3 -53 43 -1 42 -2 0 54 c0 64 -17 73 -22 12 -2 -36 -7
-44 -25 -46 -21 -3 -23 1 -23 42 0 26 -5 46 -11 46 -6 0 -9 -21 -7 -52z"/>
<path d="M2210 1343 c0 -63 18 -72 22 -10 2 35 7 43 26 45 36 5 25 22 -13 20
l-35 -1 0 -54z"/>
<path d="M2490 1364 c0 -57 14 -74 60 -72 l40 1 0 54 c0 63 -17 72 -22 11 -2
-33 -8 -44 -22 -46 -24 -5 -36 14 -36 56 0 17 -4 32 -10 32 -5 0 -10 -16 -10
-36z"/>
<path d="M2620 1385 c-15 -17 -6 -33 26 -45 32 -13 31 -34 -1 -28 -14 3 -28 2
-31 -3 -6 -11 41 -23 61 -15 24 9 18 45 -10 56 -34 13 -33 34 2 25 23 -5 25
-4 14 9 -17 20 -45 20 -61 1z"/>
<path d="M2720 1345 c0 -30 5 -55 10 -55 6 0 10 25 10 55 0 30 -4 55 -10 55
-5 0 -10 -25 -10 -55z"/>
<path d="M2770 1343 c0 -63 18 -71 22 -10 2 34 7 42 23 42 16 0 21 -8 23 -42
4 -56 22 -55 22 1 0 51 -14 66 -58 63 -32 -2 -32 -3 -32 -54z"/>
<path d="M2893 1374 c-15 -24 -15 -29 -2 -53 15 -27 48 -38 77 -25 13 6 9 9
-17 13 -48 8 -54 33 -7 27 43 -5 53 7 32 39 -22 34 -60 33 -83 -1z m65 -11 c2
-8 -6 -13 -22 -13 -25 0 -33 10 -19 24 10 10 36 3 41 -11z"/>
<path d="M3023 1394 c-25 -11 -14 -45 17 -55 35 -13 29 -33 -7 -24 -18 4 -24
2 -21 -7 6 -18 46 -22 64 -8 23 20 16 40 -16 51 -37 13 -40 34 -4 25 19 -5 25
-3 22 6 -5 14 -35 20 -55 12z"/>
<path d="M3111 1381 c-11 -20 -3 -32 32 -44 28 -10 21 -30 -9 -23 -19 5 -25 3
-22 -6 8 -23 55 -22 68 2 9 18 7 23 -19 38 -37 21 -40 37 -6 28 27 -7 35 8 9
18 -27 10 -43 7 -53 -13z"/>
</g>
</svg>
