<?xml version="1.0" standalone="no"?>
<!DOCTYPE svg PUBLIC "-//W3C//DTD SVG 20010904//EN"
 "http://www.w3.org/TR/2001/REC-SVG-20010904/DTD/svg10.dtd">
<svg version="1.0" xmlns="http://www.w3.org/2000/svg"
 width="142.000000pt" height="40.000000pt" viewBox="0 0 142.000000 40.000000"
 preserveAspectRatio="xMidYMid meet">

<g transform="translate(0.000000,40.000000) scale(0.100000,-0.100000)"
fill="#000000" stroke="none">
<path d="M300 330 c0 -5 5 -10 10 -10 6 0 10 5 10 10 0 6 -4 10 -10 10 -5 0
-10 -4 -10 -10z"/>
<path d="M232 296 c-10 -22 -9 -23 13 -12 14 6 19 13 13 17 -7 4 -3 9 8 12 17
4 17 5 -2 6 -13 1 -25 -8 -32 -23z"/>
<path d="M311 264 c-13 -14 -44 -30 -67 -37 -44 -11 -53 -20 -34 -32 6 -3 10
0 10 7 0 9 3 9 10 -2 9 -13 11 -13 20 0 5 9 10 10 10 3 0 -14 26 -11 42 5 8 8
9 12 1 12 -6 0 -14 -6 -16 -12 -3 -8 -6 -6 -6 5 -1 9 6 17 14 17 14 0 52 47
44 55 -2 2 -15 -8 -28 -21z"/>
<path d="M1223 243 c-20 -7 -15 -40 7 -46 11 -3 20 -11 20 -17 0 -8 -9 -10
-27 -5 -21 5 -25 4 -17 -5 16 -17 48 -8 52 13 3 12 -4 20 -17 24 -28 7 -27 21
2 25 16 2 18 5 7 9 -8 3 -21 4 -27 2z"/>
<path d="M561 198 c2 -35 3 -37 6 -13 l5 30 13 -30 12 -30 14 29 14 30 6 -30
c6 -26 7 -24 8 14 1 48 -14 55 -31 15 l-11 -28 -10 28 c-16 40 -27 33 -26 -15z"/>
<path d="M670 200 c0 -37 2 -40 28 -39 23 2 24 2 5 6 -27 5 -31 30 -5 36 16 4
16 5 0 6 -26 2 -22 19 5 24 19 4 18 4 -5 6 -26 1 -28 -2 -28 -39z"/>
<path d="M741 198 c0 -39 1 -41 10 -18 l10 25 18 -24 18 -23 -1 38 c-2 35 -5
39 -29 42 -26 3 -27 1 -26 -40z m39 22 c0 -5 -7 -10 -15 -10 -8 0 -15 5 -15
10 0 6 7 10 15 10 8 0 15 -4 15 -10z"/>
<path d="M824 205 c-17 -42 -18 -53 -2 -37 15 15 48 16 48 2 0 -5 4 -10 9 -10
5 0 2 18 -6 40 -9 22 -20 40 -25 40 -5 0 -16 -16 -24 -35z m36 -6 c0 -5 -4 -9
-10 -9 -5 0 -10 7 -10 16 0 8 5 12 10 9 6 -3 10 -10 10 -16z"/>
<path d="M930 201 c0 -36 3 -41 24 -41 30 0 49 22 44 52 -2 18 -10 24 -35 26
-32 3 -33 2 -33 -37z m56 14 c6 -16 -12 -45 -27 -45 -5 0 -9 14 -9 30 0 32 26
43 36 15z"/>
<path d="M1027 234 c-12 -12 -8 -51 8 -64 26 -22 50 -8 50 30 0 30 -4 35 -25
38 -14 2 -29 0 -33 -4z m51 -28 c2 -10 -1 -23 -7 -29 -15 -15 -46 16 -37 38 8
21 40 15 44 -9z"/>
<path d="M1114 215 c-7 -29 10 -55 36 -55 26 0 43 26 36 55 -5 20 -13 25 -36
25 -23 0 -31 -5 -36 -25z m54 -12 c-2 -17 -9 -28 -18 -28 -9 0 -16 11 -18 28
-3 22 1 27 18 27 17 0 21 -5 18 -27z"/>
<path d="M1287 232 c6 -4 13 -23 16 -42 l4 -35 1 37 c2 25 7 38 20 41 9 3 1 5
-18 6 -19 0 -30 -3 -23 -7z"/>
<path d="M91 117 c0 -12 3 -16 6 -9 4 10 8 10 19 1 11 -9 14 -8 14 8 0 12 -8
19 -20 20 -15 1 -20 -4 -19 -20z"/>
<path d="M260 120 c0 -11 6 -20 13 -20 19 0 27 10 20 26 -8 21 -33 17 -33 -6z"/>
<path d="M400 120 c0 -11 4 -20 8 -20 4 0 8 9 9 20 1 11 -2 20 -8 20 -5 0 -9
-9 -9 -20z"/>
<path d="M140 113 c0 -7 7 -13 15 -13 8 0 15 6 15 13 0 8 -7 14 -15 14 -8 0
-15 -6 -15 -14z"/>
<path d="M181 114 c0 -11 3 -14 6 -6 3 7 2 16 -1 19 -3 4 -6 -2 -5 -13z"/>
<path d="M200 115 c0 -8 7 -15 15 -15 8 0 15 7 15 15 0 8 -7 15 -15 15 -8 0
-15 -7 -15 -15z"/>
<path d="M303 115 c0 -8 4 -15 9 -15 4 0 8 7 8 15 0 8 -4 15 -8 15 -5 0 -9 -7
-9 -15z"/>
<path d="M331 118 c-1 -10 6 -18 14 -18 8 0 15 8 15 18 0 13 -2 14 -9 3 -7
-11 -9 -11 -14 0 -4 10 -6 9 -6 -3z"/>
<path d="M370 115 c0 -8 5 -15 10 -15 6 0 10 7 10 15 0 8 -4 15 -10 15 -5 0
-10 -7 -10 -15z"/>
</g>
</svg>
